# xmcd CD database file
#
# Track frame offsets:
#	150
#	11612
#	18714
#	20420
#	24371
#	32163
#	38053
#	49800
#	60312
#	77241
#	83245
#	98619
#	104569
#	111224
#	123608
#	130779
#	135177
#	148350
#	161016
#	177875
#	193295
#	206843
#	213302
#	222238
#	232386
#	238594
#	246274
#	283196
#	297383
#	304013
#	312415
#	319781
#	323789
#	333692
#	350215
#
# Disc length: 4895 seconds
#
# Revision: 0
# Processed by: cddbd v1.5.2PL0 Copyright (c) Steve Scherf et al.
# Submitted via: CDex 1.50
#
DISCID=1d131d23
DTITLE=gemeinde Falkenstein - Musik zum Kerzenschein 3. Advent 2014
DYEAR=2014
DGENRE=Kirchenmusik
TTITLE0=1
TTITLE1=2
TTITLE2=3
TTITLE3=4
TTITLE4=5
TTITLE5=6
TTITLE6=7
TTITLE7=8
TTITLE8=9
TTITLE9=10
TTITLE10=11
TTITLE11=12
TTITLE12=13
TTITLE13=14
TTITLE14=15
TTITLE15=16
TTITLE16=17
TTITLE17=18
TTITLE18=19
TTITLE19=20
TTITLE20=21
TTITLE21=22
TTITLE22=23
TTITLE23=24
TTITLE24=25
TTITLE25=26
TTITLE26=27
TTITLE27=28
TTITLE28=29
TTITLE29=30
TTITLE30=31
TTITLE31=32
TTITLE32=33
TTITLE33=34
TTITLE34=35
EXTD=YEAR: 2014
EXTT0=
EXTT1=
EXTT2=
EXTT3=
EXTT4=
EXTT5=
EXTT6=
EXTT7=
EXTT8=
EXTT9=
EXTT10=
EXTT11=
EXTT12=
EXTT13=
EXTT14=
EXTT15=
EXTT16=
EXTT17=
EXTT18=
EXTT19=
EXTT20=
EXTT21=
EXTT22=
EXTT23=
EXTT24=
EXTT25=
EXTT26=
EXTT27=
EXTT28=
EXTT29=
EXTT30=
EXTT31=
EXTT32=
EXTT33=
EXTT34=
PLAYORDER=
